<svg xmlns="http://www.w3.org/2000/svg" viewBox="0 0 576 334" width="576" height="334" font-family="'Source Serif 4', 'Source Serif Pro', Georgia, serif" role="img">
<title>The charge-pump PLL: a digital PFD, prescaler and divider around an analog pump, filter and VCO</title>
<defs><marker id="dg-a" viewBox="0 0 10 10" refX="9.5" refY="5" markerWidth="8.5" markerHeight="8.5" markerUnits="userSpaceOnUse" orient="auto-start-reverse"><path d="M0,0.8 L10,5 L0,9.2 L2.6,5 Z" fill="#77716A"/></marker></defs>
<rect fill="#FAF8F3" width="576" height="334"/>
<g transform="translate(12,8)">
<path class="dg-e" fill="none" stroke="#77716A" stroke-width="1.1" stroke-linejoin="round" d="M120,37 L142.5,37" marker-end="url(#dg-a)"/>
<path class="dg-e" fill="none" stroke="#77716A" stroke-width="1.1" stroke-linejoin="round" d="M264,37 L286.5,37" marker-end="url(#dg-a)"/>
<path class="dg-e" fill="none" stroke="#77716A" stroke-width="1.1" stroke-linejoin="round" d="M408,37 L430.5,37" marker-end="url(#dg-a)"/>
<path class="dg-e" fill="none" stroke="#77716A" stroke-width="1.1" stroke-linejoin="round" d="M492,74 L492,120.5" marker-end="url(#dg-a)"/>
<path class="dg-e" fill="none" stroke="#77716A" stroke-width="1.1" stroke-linejoin="round" d="M492,196 L492,242.5" marker-end="url(#dg-a)"/>
<path class="dg-e" fill="none" stroke="#77716A" stroke-width="1.1" stroke-linejoin="round" d="M432,281 L354,281 Q348,281 348,275 L348,197.5" marker-end="url(#dg-a)"/>
<path class="dg-e" fill="none" stroke="#77716A" stroke-width="1.1" stroke-linejoin="round" d="M348,122 L348,104 Q348,98 342,98 L240,98 Q234,98 234,92 L234,75.5" marker-end="url(#dg-a)"/>
<path class="dg-e" fill="none" stroke="#77716A" stroke-width="1.1" stroke-linejoin="round" d="M174,74 L174,120.5" marker-end="url(#dg-a)"/>
<rect class="dg-n io" stroke-width="1.1" fill="#EAEDF1" stroke="#4F6D8A" x="0" y="0" width="120" height="74" rx="3"/><text class="dg-t" font-size="14" font-weight="600" fill="#15140F" x="60" y="25.5" text-anchor="middle">Reference</text><text class="dg-s" font-size="11.33" fill="#4A4740" x="60" y="41.5" text-anchor="middle">clk pin</text><text class="dg-s" font-size="11.33" fill="#4A4740" x="60" y="57.5" text-anchor="middle">5 to 12.5 MHz</text>
<rect class="dg-n neutral" stroke-width="1.1" fill="#F0EADE" stroke="#77716A" x="144" y="0" width="120" height="74" rx="3"/><text class="dg-t" font-size="14" font-weight="600" fill="#15140F" x="204" y="25.5" text-anchor="middle">PFD</text><text class="dg-s" font-size="11.33" fill="#4A4740" x="204" y="41.5" text-anchor="middle">3-state flops</text><text class="dg-s" font-size="11.33" fill="#4A4740" x="204" y="57.5" text-anchor="middle">AND reset</text>
<rect class="dg-n work" stroke-width="1.1" fill="#ECEFEB" stroke="#5E7A5A" x="288" y="0" width="120" height="74" rx="3"/><text class="dg-t" font-size="14" font-weight="600" fill="#15140F" x="348" y="25.5" text-anchor="middle">Charge pump</text><text class="dg-s" font-size="11.33" fill="#4A4740" x="348" y="41.5" text-anchor="middle">UP, DN in</text><text class="dg-s" font-size="11.33" fill="#4A4740" x="348" y="57.5" text-anchor="middle">Icp out</text>
<rect class="dg-n work" stroke-width="1.1" fill="#ECEFEB" stroke="#5E7A5A" x="432" y="0" width="120" height="74" rx="3"/><text class="dg-t" font-size="14" font-weight="600" fill="#15140F" x="492" y="25.5" text-anchor="middle">Loop filter</text><text class="dg-s" font-size="11.33" fill="#4A4740" x="492" y="41.5" text-anchor="middle">R + C1, shunt C2</text><text class="dg-s" font-size="11.33" fill="#4A4740" x="492" y="57.5" text-anchor="middle">Vctrl on ua[0]</text>
<rect class="dg-n gate" stroke-width="1.1" fill="#F3E8E4" stroke="#9C4221" x="144" y="122" width="120" height="74" rx="3"/><text class="dg-t" font-size="14" font-weight="600" fill="#15140F" x="204" y="147.5" text-anchor="middle">Lock detect</text><text class="dg-s" font-size="11.33" fill="#4A4740" x="204" y="163.5" text-anchor="middle">UP, DN width</text><text class="dg-s" font-size="11.33" fill="#4A4740" x="204" y="179.5" text-anchor="middle">uo_out[2]</text>
<rect class="dg-n neutral" stroke-width="1.1" fill="#F0EADE" stroke="#77716A" x="288" y="122" width="120" height="74" rx="3"/><text class="dg-t" font-size="14" font-weight="600" fill="#15140F" x="348" y="147.5" text-anchor="middle">Divider</text><text class="dg-s" font-size="11.33" fill="#4A4740" x="348" y="163.5" text-anchor="middle">÷N, N = 1 to 5</text><text class="dg-s" font-size="11.33" fill="#4A4740" x="348" y="179.5" text-anchor="middle">uo_out[1]</text>
<rect class="dg-n work hot" stroke-width="2" fill="#ECEFEB" stroke="#5E7A5A" x="432" y="122" width="120" height="74" rx="3"/><text class="dg-t" font-size="14" font-weight="600" fill="#15140F" x="492" y="147.5" text-anchor="middle">VCO</text><text class="dg-s" font-size="11.33" fill="#4A4740" x="492" y="163.5" text-anchor="middle">starved ring</text><text class="dg-s" font-size="11.33" fill="#4A4740" x="492" y="179.5" text-anchor="middle">50 to 200 MHz</text>
<rect class="dg-n neutral" stroke-width="1.1" fill="#F0EADE" stroke="#77716A" x="432" y="244" width="120" height="74" rx="3"/><text class="dg-t" font-size="14" font-weight="600" fill="#15140F" x="492" y="269.5" text-anchor="middle">Prescaler</text><text class="dg-s" font-size="11.33" fill="#4A4740" x="492" y="285.5" text-anchor="middle">÷8, toggle flops</text><text class="dg-s" font-size="11.33" fill="#4A4740" x="492" y="301.5" text-anchor="middle">uo_out[0] tap</text>
<text class="dg-l" font-size="11.33" font-style="italic" fill="#4A4740" paint-order="stroke" stroke="#FAF8F3" stroke-width="5" stroke-linejoin="round" x="484" y="102" text-anchor="end">Vctrl</text>
<text class="dg-l" font-size="11.33" font-style="italic" fill="#4A4740" paint-order="stroke" stroke="#FAF8F3" stroke-width="5" stroke-linejoin="round" x="291" y="91" text-anchor="middle">feedback</text>
</g>
</svg>
